<?xml version="1.0" encoding="UTF-8"?>
<svg id="_Слой_1" data-name="Слой 1" xmlns="http://www.w3.org/2000/svg" viewBox="0 0 194.85 213.88">
  <defs>
    <style>
      .cls-1 {
        fill: #fff;
      }
    </style>
  </defs>
  <path class="cls-1" d="M10.74,128.01c1.35-1.62,2.16-1.22,3.5-2.55,2.12-2.09,1.75-4.72,2.65-4.78,1.12-.07,1.64,3.96,3.18,4.03,.85,.04,1.55-1.15,2.12-2.12,2-3.41,1.02-5.61,2.44-6.47,1.64-1.01,3.9,1.37,5.41,.21,.76-.58,1.03-1.84,.74-2.76-.63-1.99-3.8-2.24-3.72-3.08,.08-.81,3.02-.6,3.4-1.8,.43-1.36-2.75-3.5-3.08-3.72-3.31-2.19-5.34-1.4-6.05-2.87-.89-1.85,1.2-5.48,3.93-6.47,1.72-.63,2.39,.27,3.82-.42,2.7-1.32,1.87-5.29,3.82-5.94,2.29-.77,4.8,4.25,7.96,3.4,.19-.05,1.29-.37,1.91-1.38,.79-1.28,.25-2.75,.21-2.87-.58-1.53-1.92-1.56-1.91-2.34,.02-1.38,4.31-1.46,5.31-4.14,.11-.29,.37-.99,.11-1.7-.48-1.31-2.13-1-3.29-2.44-1.03-1.28-.9-2.98-.85-3.61,.07-.84,.17-2.22,1.17-3.08,1.59-1.37,4.64-.67,6.26,.85,.9,.84,.54,1.17,1.7,2.55,.51,.61,2.45,2.93,4.67,2.76,.91-.07,.94-.49,2.12-.96,3.02-1.18,6.36,.21,7.64,.74,1.44,.6,1.31,.82,3.72,1.91,2.26,1.02,3.17,1.19,4.03,1.17,.54-.01,1.98-.05,2.97-.85,2.1-1.7-.26-4.89,1.17-8.7,1.66-4.43,6.32-4.04,7.11-8.17,.49-2.57-1.11-3.73,0-5.94,.92-1.82,3.12-3.25,4.56-2.76,1.21,.41,1,1.85,2.23,2.34,1.19,.48,2.37-.5,5.31-2.23,1.05-.62-1.65,1.01,5.94-3.18,5.03-2.78,4.98-2.81,6.05-3.29,3.5-1.57,5.63-2.34,5.63-2.34,2.06-.74,2.93-.94,3.72-1.91,.77-.95,1.48-2.69,.85-3.93-.47-.93-1.41-.99-1.8-2.23-.09-.29-.28-.88,0-1.38,.36-.64,1.08-.36,1.7-.96,.79-.76,.8-2.4,.21-3.4-.31-.53-.54-.45-.85-1.06-.14-.28-.52-1.15-.21-2.12,.1-.31,.32-1.02,.85-1.17,.76-.21,1.63,.91,1.91,1.27,.9,1.15,.55,1.64,1.38,2.97,.64,1.02,.9,.82,1.91,2.23,.73,1.01,1.1,1.53,1.27,2.34,.25,1.14-.2,1.47,.11,2.65,.07,.28,.44,1.7,1.17,1.8,.39,.05,.61-.29,2.02-1.91,1.35-1.55,1.59-1.76,1.91-2.44,.18-.39,.48-1.03,.53-1.91,.07-1.06-.25-1.89-.42-2.34-.58-1.47-1.27-1.67-1.17-2.44,.11-.82,.93-.91,.96-1.7,.02-.72-.62-1.3-1.06-1.7-1.07-.96-1.99-.93-2.02-1.38-.03-.46,.97-.52,1.91-1.59,.56-.64,.8-1.3,1.06-2.02,.46-1.25,.21-1.43,.64-2.55,.53-1.37,1.04-1.48,.96-2.12-.14-1.05-1.53-1.17-1.59-2.12-.05-.76,.79-1.39,1.49-1.91,.27-.2,1.19-.86,2.65-1.17,1.46-.31,1.73,.09,2.44-.32,.8-.45,1.11-1.31,1.59-2.65,.53-1.46,.31-1.74,.85-2.76,.18-.34,.58-.83,1.38-1.8,.12-.15,.84-1.02,1.91-2.12,.98-1,1.26-1.18,1.59-1.17,.46,.02,.54,.38,1.27,.96,1.18,.92,1.79,.62,2.87,1.59,.28,.26,.47,.49,.85,.96,.72,.89,1.07,1.33,1.06,1.7-.02,.77-1.06,.81-1.91,2.02-.51,.73-.23,.85-.85,2.44-.41,1.05-.57,1.11-1.49,3.08-.75,1.61-.77,1.86-.74,2.12,.12,1.05,.99,1.12,1.49,2.34,.53,1.29,.13,2.63-.11,3.4-.43,1.42-.9,1.29-1.59,2.97-.6,1.45-.26,1.57-.96,3.5-.53,1.45-.78,1.55-.96,2.55-.26,1.44,.2,1.63-.11,2.65-.47,1.57-1.69,1.58-1.8,2.76-.09,.91,.61,1.05,1.38,2.97,.33,.83,.74,1.86,.64,3.08-.09,1.11-.56,1.82-.96,2.55-1.66,3.03-.64,3.64-1.8,5.31-1.2,1.71-3.01,2.48-3.93,2.87-.87,.37-1.68,.53-3.29,.85-2.21,.44-3.31,.66-4.46,.53-2.59-.28-3.98-1.81-4.25-1.49-.34,.4,1.8,2.77,3.08,4.03,1.47,1.46,1.35,1.02,2.76,2.44,1.15,1.16,1.88,2.11,3.29,2.55,.44,.14,.84,.26,1.27,.11,1.01-.34,.83-1.62,1.7-2.65,1.36-1.63,3.41-.42,4.67-1.91,1.08-1.29-.05-2.64,1.06-3.93,1.19-1.39,2.94-.32,4.14-1.59,.78-.82,.47-1.73,.53-6.16,.05-3.75,.29-4.34,.74-4.78,1.13-1.1,3.31-.98,4.78-.21,.26,.14,1.8,.94,2.23,2.55,.33,1.24-.29,1.87-.85,4.25-.5,2.12-.76,3.24-.42,4.35,.88,2.9,5.46,4.73,6.79,3.61,.62-.52,.68-1.8,.21-2.65-.98-1.79-4-1.24-4.25-2.34-.19-.86,1.64-1.23,2.55-3.18,.99-2.11,.14-4.45-.21-5.41-.28-.78-.98-2.36-2.55-3.72-.6-.51-2.92-2.52-4.56-1.8-1.17,.51-1.08,1.99-2.02,2.12-.97,.14-1.99-1.33-2.44-2.23-1.3-2.6-.29-5.46-.11-5.94,.34-.91,.49-.84,3.29-5.2,1.14-1.77,1.21-1.93,1.27-2.23,.51-2.31-1.54-3.26-1.38-5.84,.11-1.83,1.26-3.23,1.91-4.03,1.33-1.64,2.08-1.4,3.08-2.76,1.74-2.37,1-5.18,1.38-5.2,.4-.03,1.72,3.01,.64,5.63-.67,1.63-1.67,1.62-2.34,3.5-.16,.46-.84,2.37,0,4.14,.39,.83,1.15,1.4,2.65,2.55,1.49,1.14,1.53,.9,2.87,1.91,2.05,1.55,2.68,2.64,3.72,2.44,.54-.11,.86-.51,.96-.64,.82-1.14,.04-3.45-1.38-4.35-1.06-.67-1.69-.07-2.87-.85-.13-.08-1.33-.92-1.59-2.44-.18-1.04,.08-2.46,.74-2.65,.46-.14,.75,.43,2.23,1.27,1.08,.62,1.62,.93,2.02,.74,.96-.45,.07-3.22,.96-3.61,.28-.12,.44,.13,2.55,1.49,.93,.6,1.35,.84,1.38,1.27,.03,.46-.4,.85-.74,1.17-.59,.54-.88,.46-1.59,.96-.48,.34-1.15,.81-1.27,1.49-.1,.56,.21,1,.74,1.8,1.07,1.6,1.6,2.4,1.91,2.97,.54,1,1.42,2.62,.85,3.82-.27,.56-.59,.48-3.08,1.91-1.52,.87-2.12,1.31-2.65,1.8-.96,.88-1.49,1.37-1.49,2.02,0,.95,1.16,1.21,2.87,2.87,1.79,1.74,1.36,2.29,2.65,3.18,2.11,1.46,3.67,.3,4.56,1.49,1.24,1.63-1.22,4.48,.32,6.47,.46,.59,1.08,.86,1.06,1.49,0,.32-.18,.84-1.59,1.7-2.33,1.42-3.9,1.25-4.03,1.91-.16,.77,1.98,.97,2.76,2.76,.77,1.76-.66,3.04,.21,5.2,.44,1.09,.85,.89,1.38,1.91,1.6,3.07-1.57,6.01-.11,8.39,.81,1.32,1.98,.71,3.4,2.65,.41,.56,1.46,2,1.06,3.4-.3,1.05-1.25,1.46-1.06,2.02,.16,.46,.88,.43,1.7,.74,1.36,.52,2.09,1.63,2.76,2.65,.28,.43,2.52,3.93,1.27,5.63-1,1.36-3.43,.46-3.93,1.59-.44,.99,1.36,1.78,1.8,4.03,.44,2.22-.59,5.05-2.44,6.37-1.04,.74-1.77,.6-2.12,1.38-.33,.72,.1,1.25,1.06,3.82,.89,2.39,.9,2.93,1.59,3.4,1.13,.75,2.43,.18,2.55,.53,.23,.7-5.36,1.97-5.84,4.88-.28,1.7,1.39,2.69,.74,4.46-.48,1.31-1.7,1.61-1.59,2.55,.1,.87,1.25,1.4,1.91,1.7,1.63,.75,2.65,.52,5.09,.74,2.67,.24,4,.36,4.78,1.06,1.59,1.44,.7,3.55,2.23,4.35,1.09,.57,1.99-.27,3.29,.53,.17,.1,1.25,.77,1.27,1.7,.04,1.23-1.8,1.42-2.97,3.4-.24,.41-1.33,2.37-.53,4.25,.74,1.73,2.61,2.29,2.76,2.34,2.01,.57,3.55-.64,3.93-.11,.36,.52-.84,1.97-2.02,3.4-1.97,2.39-2.63,2.51-3.08,3.72-.72,1.94,.11,3.93,.42,4.67,1.37,3.27,4.03,3.63,3.93,5.41-.08,1.49-1.95,1.44-3.5,3.82-1.37,2.09-2.01,5.32-.74,7.54,1.1,1.92,2.71,1.47,3.29,3.08,.83,2.32-2.33,3.77-2.44,7.64-.09,3.02,1.79,3.42,1.27,5.63-.66,2.8-3.8,2.66-5.63,6.58-.16,.33-1.47,3.21-.42,4.25,.8,.8,2.15-.31,3.82,.42,1.38,.61,1.95,2.02,2.76,4.03,.89,2.19,1.03,4.01,1.17,5.84,.2,2.67,.29,4.01-.32,4.67-1.43,1.54-4.1-.46-7.01,1.27-1.7,1.01-1.78,2.28-2.76,2.23-1.92-.11-2.03-5.01-4.56-5.63-1.62-.4-2.19,1.46-4.46,1.59-3.54,.2-7.7-4.03-7.54-7.43,.05-1.15,.58-1.66,.21-2.55-.23-.56-.82-1.26-4.99-2.23-3.72-.87-5.61-1.28-7.22-.42-1.31,.7-1.37,1.52-2.12,1.49-2.11-.08-2.5-6.53-4.78-6.79-1.67-.2-2.58,3.15-4.14,2.97-1.42-.16-1.53-3.07-3.4-8.49-2.42-7.01-4.71-9.29-5.09-13.69-.06-.65-.08-1.42-.53-2.34-1.27-2.57-4.23-2.8-4.25-4.25-.01-1.11,1.71-1.47,1.59-2.55-.1-.92-1.47-1.67-2.65-1.8-.55-.06-1.66-.06-4.56,2.02-3.35,2.39-3.49,3.55-4.99,3.61-1.73,.06-2.42-1.45-4.25-1.06-1.27,.27-2.05,1.24-2.23,1.06-.24-.24,1.58-1.65,1.59-3.72,0-.22,.01-1.74-.96-2.44-1.46-1.06-3.78,.75-4.56-.11-.72-.79,.74-2.91,.21-3.29-.56-.41-2.17,2.03-4.25,1.8-1.17-.13-2.37-1.09-2.34-1.91,.05-1.2,2.65-1.22,3.18-2.97,.27-.88-.31-1.13-.85-3.4-.59-2.5-.25-3.72-.96-4.03-.59-.26-.96,.53-2.23,.85-2.26,.57-4.63-1.03-5.31-1.49-1.65-1.12-1.84-2-2.78-1.97-1.27,.04-1.35,1.64-2.89,2.15-1.69,.56-2.49-1.06-5.23-1.21-2.02-.11-1.87,.76-4.57,.93-2.95,.19-3.81-.8-5.51,0-1.5,.71-1.75,1.92-2.61,1.77-1.13-.19-.93-2.3-2.52-3.08-.89-.44-1.21,.1-3.55,0-1.47-.06-1.59-.28-3.36-.47-2.88-.3-2.94,.26-4.29-.09-2.69-.7-2.78-2.99-4.76-3.08-1.87-.09-3.9,1.86-3.73,3.17,.14,1.14,1.85,1.21,2.33,2.8,.42,1.37-.41,2.75-.56,2.99-1.23,1.96-3.15,1.26-4.85,3.36-.96,1.18-.93,2.13-1.68,2.24-1.16,.18-1.95-1.99-2.8-1.77-.83,.21-1.05,2.53-.84,4.2,.1,.8,.38,3,2.05,4.67,1.02,1.02,1.87,1.16,2.33,2.33,.07,.18,.53,1.34,0,2.24-.87,1.47-3.99,1.49-5.13,.19-.75-.85-.15-1.7-.93-2.52-1.17-1.22-4.02-.9-4.57,.19-.26,.51,.05,1.09-.19,1.21-.3,.16-1.11-.66-1.68-1.49-1.82-2.66-.55-4.6-1.87-5.79-1.52-1.37-3.91,.62-5.69-.93-1.14-.99-.7-2.26-2.05-3.08-.22-.13-.72-.39-2.89-.37-3.25,.03-3.69,.62-4.85,.19-1.29-.47-.99-1.29-2.89-3.17-2.36-2.34-3.73-1.98-4.29-3.55-.69-1.89,.98-3.32,.09-4.48-.89-1.16-2.95-.22-3.73-1.4-.74-1.12,.69-2.59,0-3.45-.85-1.07-3.42,.76-5.23-.47-1.23-.84-1.75-2.85-1.12-3.92,.57-.98,1.64-.42,3.17-1.59,1.55-1.18,1.27-2.39,2.61-2.89,1.12-.42,1.61,.3,2.71-.19,.97-.43,1.01-1.19,1.97-2.34Z"/>
</svg>