<?xml version="1.0" encoding="UTF-8"?>
<svg id="_Слой_1" data-name="Слой 1" xmlns="http://www.w3.org/2000/svg" viewBox="0 0 255.9 237.23">
  <defs>
    <style>
      .cls-1 {
        stroke: #000;
        stroke-miterlimit: 10;
      }
    </style>
  </defs>
  <path class="cls-1" d="M223.24,62.69c-.14-2.39-.59-3.26-.76-3.56-1.45-2.62-4.47-3.19-4.85-3.26-1-.17-2.66-.46-3.94,.45-1.99,1.42-.66,4.02-2.65,6.14-1.69,1.79-4.79,2.21-5.68,1.21-.76-.85,.5-2.23-.23-3.71-.45-.91-1.45-1.46-4.7-2.12-6.02-1.23-8.88-.65-9.78-2.35-.57-1.08,.28-1.9-.45-2.73-1-1.13-2.72,.27-5.61-.68-1.56-.51-1.9-1.2-3.41-1.29-1.26-.08-2.19,.32-2.73,.53-3.95,1.51-5.53-.3-9.4,.99-3.68,1.22-4.19,3.5-6.22,3.03-2.11-.49-3.09-3.31-3.33-4.02-.17-.48-1.21-3.49,.3-5.53,.64-.86,1.1-.69,3.11-1.97,2.2-1.41,3.79-2.42,3.87-3.87,.07-1.31-1.11-2.82-2.35-2.96-1.15-.12-2.06,.97-3.79,3.11-1.3,1.6-1.47,2.2-3.18,4.62-1.41,2.01-2.14,3.02-3.03,3.71-.59,.46-2.52,1.95-4.93,1.89-1.96-.04-2.26-1.06-5.53-2.58-2.81-1.3-5.5-2.55-7.73-1.44-1.13,.56-2.49,1.91-2.65,3.49-.12,1.19,.51,1.84,.08,2.43-.56,.75-2.29,.58-3.49,0-1.65-.8-2.36-2.43-2.8-3.49-1.41-3.36-.27-5.29-1.74-6.44-.93-.72-2.4-.76-3.26-.15-1.53,1.08-.91,4.1-.83,4.47,.51,2.36,1.98,3.16,1.52,4.4-.26,.71-1.07,1.32-1.82,1.29-1.88-.07-3.31-4.23-3.71-6.97-.18-1.25-.68-4.64,1.06-7.96,1.71-3.27,3.65-2.8,5.61-6.75,.58-1.17,.99-2.39,2.05-2.65,.39-.1,1.36-.19,3.03,1.36,4.27,3.97,2.7,8.99,6.29,11.44,1.55,1.06,3.22,1.06,4.62,1.06,5.55,0,10.53-4.43,10-6.52-.25-1-1.63-.95-2.35-2.58-.55-1.24-.24-2.41-.08-3.33,.35-1.92,.08-3.93-.45-7.96-.36-2.67-.71-5.33-2.12-8.41-1.29-2.81-2.3-3.46-2.8-6.06-.53-2.72,.29-3.47-.45-4.55-1.62-2.33-7.81-2.19-12.05,.68-3.18,2.15-1.98,3.61-6.29,7.66-3.92,3.68-5.6,3.11-7.58,6.37-1.08,1.78-1.49,3.45-3.41,4.55-1.36,.77-1.76,.29-3.56,1.06-.59,.25-3.63,1.56-4.85,4.4-.91,2.1-.09,3.37-1.21,4.24-1.11,.87-2.41,.02-3.33,.99-.63,.66-.28,1.31-.61,2.96-.08,.38-.22,.98-1.97,4.32-1.31,2.5-1.97,3.75-2.43,4.02-.9,.53-2.43,.36-5.46,0-2.81-.33-3.86-.67-4.47,0-.53,.58-.55,1.7-.08,2.35,.65,.89,1.79,.32,2.96,1.06,1.47,.94,1.63,3.12,1.74,4.7,.1,1.35,.25,3.4-1.06,5.38-.29,.44-1.61,2.44-4.09,2.88-.53,.09-2.38,.42-3.71-.68-1.15-.95-1.27-2.44-1.44-4.47-.1-1.19-.2-2.46,.23-4.02,.41-1.48,1-2.11,.76-3.26-.04-.18-.26-1.21-1.14-1.74-1.17-.71-2.66-.04-3.41,.53-.18,.13-1.47,1.15-1.27,2.17,.13,.66,.77,.67,1.2,1.66,.09,.19,.38,.87,.23,1.66-.16,.88-.79,1.44-.97,1.61-1.79,1.59-5.92,.42-11.76,0-.38-.03-1.04-.07-1.83,.17-1.72,.52-2.6,1.95-3.33,2.92-1.73,2.34-2.05,1.4-5.79,5.1-2.56,2.54-3.84,3.8-4.36,5.56-.76,2.57,0,4.97,.4,6.19,1.32,4.12,3.88,5.4,3.21,7.51-.14,.45-.78,1.1-2.06,2.41-1.08,1.1-1.51,1.36-3.27,2.98-1.23,1.13-1.84,1.7-2.24,2.18-1.19,1.43-2.2,2.65-2.24,4.19-.04,1.74,1.23,2,1.61,4.64,.14,.97,.26,1.91-.23,2.87-.68,1.35-2.38,2.38-3.61,2.01-1.01-.31-.88-1.3-2.06-1.84-1.49-.67-3.16,.22-3.38,.34-1.24,.68-2.47,2.17-2.29,3.61,.22,1.79,2.41,1.8,5.22,4.93,1.16,1.29,2.3,2.59,2.47,4.42,.15,1.69-.64,2.61-1.43,4.47,0,0-1.83,4.3-1.26,9.23,.25,2.22,1.51,4.32,4.01,8.43,3.76,6.18,5.31,6.93,6.19,10.61,.46,1.9,1.08,4.51-.17,6.94-1.01,1.96-2.11,1.62-6.42,5.33-2.69,2.32-3.23,3.28-4.53,3.21-1.76-.1-2.12-1.95-4.7-2.58-.19-.05-2.95-.7-3.84,.52-1.01,1.37,1.26,3.92,.29,4.93-.67,.7-2.4,.15-2.87,0-1.71-.54-2.03-1.55-3.07-1.43-.95,.11-1.59,1.05-1.98,1.62-1.12,1.64-.75,3.05-1.44,3.24,0,0-2.16-1.44-2.16-1.44,0,0-2.82-.21-5.22,.18-2.42,.39-4.65,.75-5.22,2.16-.46,1.14,.57,1.97,1.26,4.5,.67,2.46,.38,4.23,.36,5.4-.06,4.56,4.03,8.54,7.92,13.68,5.99,7.91,3.53,8.05,9.36,15.84,5.67,7.57,8.36,7.92,11.16,13.68,2.46,5.05,2.9,9.95,2.88,13.32,.35,.16,.86,.38,1.48,.58,1.33,.42,2.83,.89,3.87,.45,1.21-.52,1.53-2.18,1.97-4.7,.63-3.59-.1-4.21,.68-7.2,.38-1.44,.93-2.79,1.44-4.02,1.14-2.75,1.38-2.55,1.59-3.64,.55-2.79-1.08-3.79-.15-5.76,.35-.75,.94-1.33,2.12-2.5,.69-.68,1.26-1.14,1.82-1.59,1.12-.9,1.43-1.03,3.41-2.43,2.02-1.43,2.02-1.53,2.58-1.74,.61-.23,2.34-.9,3.71-.15,1.36,.74,1,2.12,2.43,2.8,1.23,.59,2.55,.07,2.73,0,.34-.14,.91-.44,2.12-2.12,1.06-1.48,1.61-2.24,2.05-3.49,.34-.96,.98-2.83,.38-4.77-.46-1.49-1.21-1.56-2.27-3.18-1.97-2.99-1.78-6.28-1.74-6.75,.23-3.28,1.97-5.48,2.5-6.14,1.25-1.54,1.88-1.47,4.77-3.64,4.63-3.46,5.21-5.28,6.67-5,2.53,.48,2.44,6.28,4.7,6.52,1.64,.17,2.1-2.85,5.46-4.24,1.75-.73,2.25-.17,5.84-.45,2.34-.19,5.59-.45,8.56-1.97,3.02-1.54,1.8-2.35,6.06-5.38,4.04-2.87,5.88-2.68,7.96-5.31,.41-.52,.89-1.23,1.82-1.52,1.94-.6,3.32,1.44,4.47,.91,1.62-.75-.32-5.2,1.97-7.43,1.4-1.36,2.84-.41,4.17-1.82,1.53-1.62,1.57-4.96,.23-7.2-2.11-3.52-6.6-2.64-7.2-5.15-.51-2.14,2.22-4.86,4.02-6.06,2.11-1.41,3-.79,4.4-2.27,1.7-1.81,1.34-3.77,2.96-4.47,.28-.12,.84-.3,2.73,.15,4.19,1.01,5.68,2.94,6.59,2.35,1.15-.74-.93-4,.83-6.52,.9-1.29,2.08-1.34,2.12-2.27,.06-1.28-2.14-1.47-3.26-3.64-1.16-2.24-.18-4.68-.08-4.93,.15-.36,.96-2.29,2.96-3.11,1.89-.77,3.75-.09,4.77,.3,5.26,2.02,6.4,7.18,8.94,6.75,1.21-.21,1.22-1.42,3.33-2.12,1.49-.5,2.86-.36,3.56-.23,3.1,.57,3.42,2.78,6.37,3.33,.58,.11,2.52,.48,3.94-.53,2.01-1.42,.63-3.91,2.05-7.5,1.97-5.01,6.36-4.5,7.5-9.32,.46-1.94,.05-3.27,1.29-5.08,.34-.49,1.67-2.43,3.56-2.5,2.05-.07,3.19,2.12,4.55,1.59,.72-.28,.98-1.12,1.14-1.52,1.43-3.58,7.8-4.03,16.07-8.34,4.64-2.42,5.34-3.69,5.61-4.24,1.03-2.17-.22-2.92,.38-8.19,.27-2.35,.69-3.74,.53-6.44Z"/>
  <path class="cls-1" d="M5.79,163.56c-.16-.93-1.1-1.37-1.71-1.65-.19-.09-1.95-.92-2.86-.11-.32,.28-.42,.67-.55,1.16-.13,.48-.3,1.14,0,1.82,.4,.9,1.35,1.19,1.6,1.27,.22,.07,1.3,.37,2.31-.28,.6-.39,1.38-1.24,1.21-2.2Z"/>
  <path class="cls-1" d="M12.23,51.04c1.57,2.34,1.88,2.99,2.77,3.2,.59,.14,1.48,.1,2.03-.43,1.21-1.15,.09-3.96-.48-5.38-.66-1.66-1.46-2.65-2.61-4.1-1.58-1.98-2.19-2.11-2.51-2.13-1.17-.09-2.45,.88-2.72,2.03-.1,.43-.06,.92,.91,2.72,.84,1.57,1.37,2.25,2.61,4.1Z"/>
  <path class="cls-1" d="M179.06,43.52c.19,0,2.42-.07,3.25-1.94,.55-1.24,.22-2.68-.62-3.56-1.31-1.38-3.7-1.27-5.03,0-.87,.84-1.48,2.36-.85,3.72,.82,1.78,3.07,1.78,3.25,1.78Z"/>
  <path class="cls-1" d="M211.36,51.42c.58,.39,1.63,.15,2.17-.46,.76-.86,.34-2.22-.23-2.94-.71-.91-2.09-1.36-2.56-.93-.15,.14-.17,.34,0,1.7,.28,2.29,.41,2.49,.62,2.63Z"/>
  <path class="cls-1" d="M255.37,1.7c-4.83-1.04-13.79-2.3-23.15,.53-3.92,1.19-6.96,2.8-7.39,3.03-5.47,2.94-5.24,4.55-10.61,8.13-4.99,3.33-9.16,4.61-13.17,8.67-.98,1-1.98,2.2-2.09,3.8-.14,2.03,1.32,2.57,1.55,5.11,.23,2.57-1.14,3.27-.46,4.96,.52,1.28,1.34,.93,3.56,3.02,2.07,1.95,2.39,3.22,3.87,3.41,.73,.09,1.7-.08,2.09-.7,.44-.69,0-1.66-.39-2.56-1.73-4.01-2.58-6.05-2.25-7.67,.2-.94,.66-1.27,2.4-3.1,3.31-3.49,3.09-3.84,5.42-6.27,3.83-4,7.67-6.41,12-9.14,4.28-2.7,6.43-4.04,9.45-5.03,5.43-1.78,10.12-1.97,10.12-1.97,4.16-.17,6.99,.5,8.38-1.25,.71-.9,.75-2.08,.66-2.97Z"/>
</svg>