<svg width="476" height="452" viewBox="0 0 476 452" fill="none" xmlns="http://www.w3.org/2000/svg">
<path d="M475.9 0.0300293C474 5.39003 470.08 7.50003 464.52 8.14003C457.33 8.97003 450.28 11.27 443.09 11.74C433.09 12.39 425.22 17.46 417.9 23.08C407.29 31.22 394.48 36.61 386.75 48.49C381.97 55.85 381.33 62.99 384.98 70.58C386.3 73.33 387.68 75.67 384.85 78.09C381.78 80.71 380.43 77.15 378.55 76.07C372.73 72.71 371.88 66.6 369.16 61.08C361.95 46.43 371.3 40.29 380.06 33.19C386.41 28.03 392.95 23.04 399.79 18.57C404.74 15.34 410.65 13.53 413.5 7.65003C414.92 4.72003 417.82 4.21003 420.73 4.02003C423.92 3.81003 427.17 3.81003 428.49 0.0300293C444.28 0.0300293 460.09 0.0300293 475.9 0.0300293Z" fill="#94C67B"/>
<path d="M17.7701 316.47C21.4201 315.91 22.1001 314.2 27.4401 315.28C31.6601 316.13 33.4601 318.08 34.7901 317.12C36.6601 315.78 34.1001 311.29 36.0201 309.77C38.6501 307.67 48.9701 313.42 45.8201 312.22C49.7901 311.47 53.2801 310.19 53.7801 307.93C54.5701 304.4 47.7201 300.11 48.2701 299.35C48.9201 298.44 57.4501 306.49 64.8101 304.25C66.1501 303.84 65.4001 303.72 72.7701 298.12C77.0401 294.88 82.0001 291.35 81.9601 291.38C88.0601 289.4 89.1001 287.07 89.3101 285.87C89.6801 283.74 87.8801 282.6 81.3501 274.84C77.5301 270.31 73.3901 265.04 73.3901 265.04C74.9001 259.5 73.9201 256.41 72.7801 254.62C70.6601 251.3 67.4401 251.59 66.0401 247.88C64.9201 244.9 65.4301 240.53 65.4301 240.53C65.3901 236.57 65.4001 233.24 65.4301 230.73C65.5001 224.34 65.6401 223.07 66.0401 221.54C67.4101 216.37 69.6401 216.24 69.7201 213.58C69.9001 207.11 56.8101 205.5 55.6301 197.65C54.9501 193.17 58.3301 187.88 61.7601 187.23C65.6101 186.51 67.7201 192 72.7901 191.52C75.6201 191.25 78.4901 189.19 79.5301 186.62C81.4501 181.85 75.5601 179.08 75.8501 173.14C76.2701 164.83 88.1201 163.58 90.5501 152.31C91.3501 148.59 90.8101 145.26 90.5501 143.73C89.2201 135.93 85.1601 134.67 84.4201 129.64C83.6401 124.33 87.9801 119.36 96.6701 109.42C102.6 102.63 105.93 98.9 111.99 95.94C115.64 94.16 121 91.53 127.31 92.88C131.8 93.84 137.39 96.94 138.31 98.94C138.37 99.07 138.59 99.58 138.95 99.62C139.65 99.7 140.7 98.07 140.77 96.57C140.87 94.42 138.87 93.87 138.24 91.68C137.47 89.02 139.02 84.92 142.28 83.59C145.5 82.28 149.52 84.02 150.87 86.62C152.66 90.06 148.49 92.54 148.85 100.1C148.95 102.31 149.47 105.59 151.55 108.69C152.6 110.27 153.75 111.99 155.76 112.57C159.37 113.6 163.56 110.29 165.53 107.18C167.65 103.84 167.4 100.43 167.05 95.72C166.71 91.2 166.49 88.24 164.35 86.45C160.73 83.42 154.37 86.01 154.24 85.44C154.13 84.95 158.83 82.74 165.7 81.73C174.59 80.43 177.16 82.61 180.19 80.21C183.25 77.8 181.37 75.01 185.08 67.24C186.27 64.75 187.95 62.38 191.31 57.64C195.04 52.38 196.91 49.75 199.4 47.53C200.11 46.9 202.92 44.97 208.5 41.13C214.69 36.87 214.97 36.72 215.75 35.91C219.49 32 218.37 30.1 221.98 26.31C224.44 23.72 224.97 24.61 229.9 20.75C234.11 17.45 236.31 15.73 237.82 12.66C239.84 8.55003 238.28 6.77003 240.35 4.24003C242.32 1.83003 245.35 1.44003 250.29 0.870029C257.28 0.0600293 258.21 1.67003 266.3 1.21003C271.14 0.930029 273.94 0.180029 274.56 1.38003C275.36 2.95003 270.99 5.11003 270.85 9.13003C270.74 12.27 273.33 13.22 275.9 17.55C276.57 18.68 277.22 20.01 279.61 32.71C280.84 39.26 280.69 39.05 281.97 46.02C283.78 55.88 284.09 56.43 284.16 59.33C284.26 63.42 284.31 67.98 281.8 72.81C280.63 75.06 278.85 78.65 274.72 80.73C270.33 82.94 265.17 82.53 261.41 80.56C258.55 79.06 257.08 76.97 254.16 72.81C252.27 70.11 252.68 70.07 248.94 63.71C246.13 58.94 245.52 58.32 244.39 55.79C243.67 54.17 242.9 52.13 241.86 47.87C239.4 37.78 239.52 32.06 238.66 32.03C237.88 32.01 236.8 36.67 236.64 41.3C236.45 47.01 237.82 47.99 237.48 53.43C237.23 57.4 237.02 60.74 234.62 63.03C232.5 65.05 230.87 64.18 227.88 66.74C225.85 68.49 224.83 70.41 223.84 72.3C222.17 75.46 221.16 77.38 221.48 79.71C221.95 83.2 224.8 83.2 225.52 86.96C226.12 90.07 224.35 90.98 225.18 94.54C225.44 95.66 226.14 98.63 228.21 99.09C229.78 99.44 231.74 98.25 232.25 96.73C232.78 95.17 231.43 94.3 230.57 91.34C229.48 87.6 230.31 84.4 230.57 83.42C230.75 82.77 232.11 77.72 234.11 77.69C236.07 77.66 237.85 82.48 240.18 88.81C241.13 91.4 241.71 93.37 243.38 96.06C244.84 98.41 246.27 100.65 248.43 100.78C250.57 100.91 252.26 98.9 252.64 98.42C255.24 95.14 252.96 92.04 254.49 89.15C257.34 83.79 271.65 82.39 277.91 88.48C280.86 91.35 281.16 95.03 284.31 95.56C285.96 95.83 287.54 94.96 290.71 93.2C294.08 91.34 295.97 90.29 296.27 88.48C296.66 86.13 293.89 85.32 294.08 82.92C294.2 81.38 295.43 80.55 302.17 75.67C306.16 72.78 306.58 72.46 307.06 71.63C309.54 67.27 305.96 62.15 307.06 61.52C308.27 60.83 314.01 66.19 316.33 73.82C317.74 78.45 318.21 84.99 315.82 86.12C314.47 86.76 312.2 85.68 310.93 84.6C309.21 83.14 309.31 81.65 308.23 81.4C306.58 81.01 304.32 84.01 303.18 86.29C302.4 87.84 299.17 94.22 302.84 99.43C305.3 102.92 310.34 105.16 313.46 103.64C316.71 102.06 315.78 97.42 319.02 96.23C321.46 95.33 322.63 97.73 326.94 98.08C331.1 98.42 331.3 96.3 337.72 95.38C341.39 94.86 345.84 94.23 348.5 96.73C349.62 97.78 350.01 99 351.2 99.09C352.61 99.2 353.12 97.56 355.41 96.23C357.65 94.93 360.67 94.46 361.31 95.39C361.96 96.34 359.57 97.89 359.79 100.78C359.8 100.89 360 103.1 361.64 104.49C363.37 105.95 365.22 105.24 368.55 105.5C371.87 105.76 371.13 106.55 377.99 108.36C379.53 108.77 382.44 109.49 386.75 110.72C389.39 111.47 391.26 112.05 391.3 112.91C391.35 114.06 388.06 114.39 387.76 116.28C387.57 117.46 388.6 118.83 389.78 119.31C391.02 119.81 392.12 119.2 395.17 117.79C400.94 115.13 400.77 115.57 401.4 114.93C404.79 111.5 403.44 105.32 403.25 104.48C402.67 101.86 401.45 99.84 400.39 98.08C398.05 94.21 396.44 93.54 396.51 91.51C396.6 89.19 398.82 86.6 400.89 86.79C402.79 86.97 404.2 89.46 404.43 91.51C404.75 94.38 402.65 95.58 403.25 97.58C403.78 99.33 405.79 99.72 408.81 101.12C411.51 102.36 414.04 104.31 419.09 108.2C424.26 112.18 426.84 114.21 426.5 116.29C426.15 118.43 423.24 118.24 422.29 121.18C421.7 122.99 422.65 123.58 422.96 128.43C423.11 130.64 423.18 131.74 422.96 133.15C422.37 136.94 420.69 137.68 421.11 140.06C421.47 142.1 422.84 142.33 422.96 144.1C423.11 146.31 421.12 148.17 419.76 149.32C414.73 153.59 410.44 156.43 405.46 158.69C401.08 160.67 396.18 161.92 391.21 164.42C385.57 167.25 385.79 169.54 384.5 170.46C380.54 173.3 370.37 177.17 368.44 176.47C366.55 175.78 368.65 172.93 366.85 172.42C364.41 171.74 364.47 174.27 364.04 174.9C361.99 177.93 362.15 179.51 360.64 182.87C359.31 185.84 358.42 186.3 354.44 191.58C349.75 197.81 347.4 200.92 346.47 203.69C345.91 205.37 343.65 212.05 346.62 217.87C348.65 221.84 350.99 221.25 355.33 227.03C357.58 230.03 359.41 232.45 360.06 236.04C361.04 241.43 358.17 242.84 359.47 248C360.52 252.15 362.65 252.33 362.72 255.97C362.76 258.25 361.93 258.5 361.1 263.65C360.4 267.99 360.78 269.12 361.25 269.85C362.31 271.5 363.58 270.84 365.38 272.51C367.16 274.16 366.42 275.28 368.78 280.63C369.74 282.82 370.1 283.15 370.85 285.21C371.82 287.85 372.3 289.18 372.18 290.08C371.7 293.63 366.17 293.26 361.1 298.79C359.09 300.98 357.93 303.26 356.67 305.73C355.62 307.78 354.43 310.11 353.72 313.26C352.9 316.85 351.91 321.21 354.02 324.63C355.58 327.16 357.18 326.47 363.62 330.83C364.19 331.22 366.18 332.77 370.12 335.85C377.14 341.34 377.95 342.05 377.89 343.16C377.75 345.59 373.59 348.21 369.66 348.19C364.48 348.17 363.48 343.59 357.78 343.16C355.35 342.98 353.12 343.8 348.64 345.45C342.69 347.64 341.74 349.25 339.5 348.65C336.02 347.71 336.34 343.28 332.64 342.25C330.15 341.55 329.3 343.38 324.87 344.08C324.16 344.19 319.04 344.94 313.9 342.71C308.55 340.39 307.45 336.7 304.3 337.23C302.45 337.54 300.77 339.15 300.19 340.89C298.95 344.57 303.25 346.84 302.48 350.49C301.95 352.95 299.73 353.11 293.34 357.8C288.46 361.38 286.03 363.17 284.66 366.03C282.94 369.61 282.8 374.17 284.2 377.91C285.98 382.67 289.44 383.94 288.77 385.68C287.78 388.26 279.53 387.3 277.34 387.05C272.15 386.45 269.56 386.15 267.29 384.31C261.66 379.74 264.72 371.68 259.98 369.23C256.51 367.44 253.86 371.21 249.47 369.23C245.3 367.35 245.92 363.15 242.16 361.92C238.22 360.63 236.28 364.84 231.65 364.21C226.39 363.48 222.23 357.13 220.68 352.33C218.9 346.81 220.64 343.46 217.94 341.36C215.29 339.3 212.12 341.35 210.17 339.07C208.17 336.73 210.26 333.09 208.34 331.76C206.74 330.64 204.72 332.81 202.86 331.76C200.41 330.38 202.47 325.81 200.12 323.99C197.54 321.99 191.02 324.35 187.18 326.99C185.68 328.03 184.75 328.99 183.09 329.03C180.56 329.1 179.96 326.93 177.25 326.69C175.39 326.53 173.87 327.46 170.82 329.32C169.18 330.32 167.64 331.26 166.15 332.97C163.44 336.07 163.49 338.68 162.5 338.67C161.42 338.66 160.77 335.58 158.41 328.3C156.53 322.49 156.05 321.69 155.2 321.44C153.59 320.96 152.27 322.91 145.71 329.04C141.8 332.69 139.84 334.52 137.97 335.76C134.37 338.14 133.05 338.1 130.81 340.43C130.22 341.04 126.27 345.17 127.45 348.03C128.39 350.31 132.01 350.36 131.98 351.68C131.95 352.94 128.65 352.9 127.74 355.04C126.82 357.2 129 360.08 129.93 361.32C132.7 365 134.6 364.22 136.21 366.72C138.33 370.01 136.94 374.32 134.75 381.18C133.19 386.04 131.87 387.43 130.95 388.19C130.45 388.61 127.77 390.84 124.38 390.53C121 390.22 120.71 387.72 117.08 387.17C114.63 386.8 112.54 387.6 110.22 388.48C107.97 389.34 108.03 389.76 104.38 391.55C100.95 393.23 100.45 393.08 98.6801 394.18C97.3101 395.03 95.4201 396.47 93.5701 399C95.9901 408.24 94.5601 412.77 92.6901 415.21C92.1001 415.99 91.4901 416.51 90.5001 417.99C89.4801 419.5 88.2501 421.73 86.7001 427.63C85.2401 433.2 84.5101 435.98 84.5101 439.46C84.5001 444.89 85.9801 446.04 84.8001 448.08C82.6001 451.87 74.4901 452.94 71.0701 449.69C69.6401 448.33 69.3401 445.62 68.7301 440.2C67.9901 433.55 68.7401 432.02 67.1201 429.68C65.1001 426.75 62.2201 426.68 62.1501 424.71C62.0701 422.44 65.8601 421.87 66.0901 419.16C66.2001 417.85 64.7601 416.18 61.8501 412.88C59.4501 410.15 59.4101 410.51 57.3201 408.06C55.0201 405.35 54.8701 404.67 53.5201 403.97C51.0801 402.7 49.8201 404.02 48.2601 402.8C46.5201 401.44 47.7901 399.56 45.9201 396.08C44.8201 394.03 44.1101 394.16 42.4101 391.41C41.1301 389.33 40.5401 387.63 40.2901 386.98C38.1501 381.37 31.4401 375 27.4201 369.83C22.3301 363.27 20.2401 356.93 18.8401 352.68C14.4301 339.27 18.2601 335.13 12.7101 325.72C9.54013 320.34 14.2001 317.19 14.2001 317.19L17.7701 316.47Z" fill="#92C56E"/>
<path d="M329.71 69.58C327.25 72.03 327.58 75.85 328.95 78.28C330.43 80.89 333.86 83.19 336.89 82.06C340.17 80.84 340.63 76.49 340.67 76.01C340.91 73.38 339.94 69.35 336.51 68.07C334.2 67.2 331.45 67.85 329.71 69.58Z" fill="#95C11F"/>
<path d="M7.36013 80.76C6.47013 82.78 10.1401 84.75 14.1201 91.09C18.2901 97.74 18.1201 101.75 20.8801 102.22C23.2001 102.61 25.8301 100.21 26.8401 97.85C28.7901 93.29 24.9701 88.29 22.8701 85.53C21.1701 83.31 18.5601 79.88 14.1301 79.17C11.9601 78.82 8.17013 78.93 7.36013 80.76Z" fill="#95C11F"/>
<path d="M1.79013 306.61C0.580131 307.54 0.730131 309.76 1.34013 311.16C1.97013 312.6 3.35013 313.76 5.02013 314.01C6.78013 314.27 9.15013 313.58 9.78013 311.79C10.4001 310.01 8.91013 308.28 8.70013 308.04C7.52013 306.7 5.89013 306.49 4.64013 306.34C3.38013 306.17 2.49013 306.06 1.79013 306.61Z" fill="#95C11F"/>
<path d="M265.34 0.0300293C261.64 10.09 268.06 18.87 268.91 28.36C264.1 22.82 263.37 15.33 259.77 9.26003C257.4 5.26003 263.2 3.49003 261.55 0.0300293C262.81 0.0300293 264.07 0.0300293 265.34 0.0300293Z" fill="#F3F4EA"/>
<path d="M265.97 132.05C263.49 140.37 269.31 148.93 259.88 154.99C262.44 147.66 262.81 141.28 261.14 134.58C259.51 128.06 262.91 128.05 268 130.26C274.57 133.12 280.03 138 287.47 139.45C293.57 140.64 294.82 138.3 294.53 133.36C294.38 130.9 292.82 128.1 293.58 126.09C295.76 120.3 297.27 113.67 306.62 115.45C311.83 116.44 317.53 114.95 324.06 114.5C318.35 119.5 312.33 118.61 306.56 118.81C300.07 119.02 296.47 122.06 297.19 128.86C297.73 133.92 300.7 140.64 295.55 143.22C290.08 145.96 283.5 142.6 278.01 139.53C274.24 137.42 270.65 134.98 265.97 132.05Z" fill="#F7E0A8"/>
<path d="M167.22 109.97C155.3 115.45 148.2 111.8 148.7 100.34C148.81 97.92 148.85 95.57 148.12 93.52C150.14 90.29 151.05 88.84 153.08 85.61C167.99 83.77 165.25 87.52 169.36 103.05C170.36 105.66 168.22 107.71 167.22 109.97Z" fill="#9ED6E4"/>
<path d="M333.89 119.38C347.87 125.9 360.47 131.48 372.79 137.62C379.66 141.05 385.94 143.83 392.36 136.95C393.12 136.14 395.26 136.62 397.36 136.46C387.73 145.91 384.46 146.47 373.52 141.26C363 136.25 352.41 131.4 341.9 126.37C339.15 125.06 335.81 124.39 333.89 119.38Z" fill="#F7E0A8"/>
<path d="M232.2 49.42C229.44 49.47 226.67 49.52 223.91 49.57C222.19 43.01 224.34 37.02 226.73 30.42C233.45 35.73 230.66 43.22 232.2 49.42Z" fill="#F3F4EA"/>
<path d="M269.37 40.01C275.81 47.13 276.81 65.35 271.13 72.02C274 61.16 268.5 50.76 269.37 40.01Z" fill="#F3F4EA"/>
<path d="M183 117.56C175.6 118.6 172.99 115.18 174.19 108.2C176.93 105.78 180.21 104.42 183.31 106.77C187.83 110.19 182.18 113.9 183 117.56Z" fill="#9ED6E4"/>
<path d="M195.14 119.17C194.69 120.64 194.72 122.76 193.73 123.47C185.95 129.05 187.43 136.68 189.81 146.01C180.95 132.85 182.24 127.84 195.16 119.2L195.14 119.17Z" fill="#F7E0A8"/>
<path d="M199.1 114.83C195.93 100.51 198.78 93.12 209.08 92.17C198.82 97.76 200.51 106.9 199.1 114.83Z" fill="#F7E0A8"/>
<path d="M136.22 149.53C139.05 148.72 144.75 151.99 142.9 144.61C141.18 137.75 141.96 133.1 151.06 136.04C152.43 136.48 154.46 134.89 156.18 134.24C155.51 135.27 154.98 137.05 154.15 137.21C142.51 139.34 144.98 146.06 148.74 153.26C144.17 153.37 139.78 152.82 136.22 149.53Z" fill="#F3F4EA"/>
<path d="M271.1 170.3C269.32 156.63 263.28 168.97 258.94 167.55C262.43 163.96 265.97 159.9 271.89 163.22C276.13 165.6 273.99 168.2 271.02 170.22L271.1 170.3Z" fill="#F7E0A8"/>
<path d="M223.63 166.43C216.62 167.67 211.95 162.73 204.55 159.02C213.4 158.9 218.83 161.77 223.56 166.5L223.63 166.43Z" fill="#F7E0A8"/>
<path d="M259.69 183.52C260.32 179.2 259.74 174.14 267.72 172.95C263.51 176.41 265.44 182.33 259.6 183.43L259.69 183.52Z" fill="#F7E0A8"/>
<path d="M248.25 189.33C248.26 187.41 248.28 185.5 248.29 183.59C252.09 184.01 255.9 184.57 259.69 183.52L259.6 183.43C258.07 189.71 251.27 185.91 248.25 189.33Z" fill="#F7E0A8"/>
<path d="M225.47 168.41C228.89 169.64 235.75 165.48 234.47 175.95C232.41 170.75 227.14 172.37 225.54 168.34L225.47 168.41Z" fill="#F7E0A8"/>
<path d="M161.85 162.68C155.85 163.71 152.5 161.65 152.94 155.13C155.9 157.65 158.88 160.17 161.85 162.68Z" fill="#9ED6E4"/>
<path d="M244.57 181.38C242.45 181.35 240.33 181.33 238.21 181.3C240.41 175.03 242.49 178.5 244.57 181.38Z" fill="#F7E0A8"/>
<path d="M168.51 167.02C165.96 166.35 163.78 165.14 162.28 162.89C165.09 163.16 168.23 162.95 168.51 167.02Z" fill="#9ED6E4"/>
<path d="M271.15 71.96C270.87 74.14 269.7 75.5 267.48 75.86C268.7 74.56 269.92 73.26 271.15 71.96Z" fill="#F3F4EA"/>
<path d="M259.46 159.06C259.14 159.31 258.81 159.57 258.48 159.83C258.34 159.36 258.13 158.89 258.08 158.4C258.06 158.22 258.41 158 258.59 157.79C258.83 158.16 259.09 158.53 259.46 159.06Z" fill="#F7E0A8"/>
<path d="M248.15 183.48C246.51 183.61 245.24 183.11 244.64 181.46C246.21 181.44 247.44 182.02 248.15 183.48Z" fill="#F7E0A8"/>
<path d="M271.02 170.22C270.86 170.44 270.69 170.66 270.53 170.89C270.72 170.7 270.91 170.5 271.1 170.31C271.1 170.3 271.02 170.22 271.02 170.22Z" fill="#F7E0A8"/>
<path d="M225.55 168.34C224.91 167.7 224.27 167.07 223.63 166.43L223.56 166.5C224.2 167.14 224.84 167.77 225.48 168.41C225.47 168.41 225.55 168.34 225.55 168.34Z" fill="#F7E0A8"/>
<path d="M152.39 155.04C151.28 154.51 150.16 153.98 149.04 153.44C150.15 153.97 151.27 154.51 152.39 155.04Z" fill="#9ED6E4"/>
<path d="M192.28 146.25L192.51 146.79L191.93 146.73L192.28 146.25Z" fill="#F7E0A8"/>
<path d="M195.16 119.2C195.41 118.71 195.67 118.22 195.92 117.73C197.08 118.98 196 119.02 195.14 119.18C195.14 119.17 195.16 119.2 195.16 119.2Z" fill="#F7E0A8"/>
<path d="M329.23 69C331.92 70.69 335.5 71.51 335.02 75.52C334.49 79.91 331.32 80.75 327.54 80.38C324.19 80.05 322.36 78.26 323.08 74.83C323.78 71.56 326.28 69.9 329.23 69Z" fill="#97C350"/>
<path d="M126.94 87.05C127.69 88.71 128.43 90.37 129.2 92.02C129.82 93.36 131 94.89 129.34 96.05C127.52 97.31 125.92 96.32 124.7 94.71C125.37 92.14 123.89 88.93 126.94 87.05Z" fill="#F3F4EA"/>
<path d="M127.84 84.3C128.41 84.84 129.5 85.44 129.44 85.9C129.27 87.27 128 87.16 126.91 87.09C127.22 86.16 127.53 85.23 127.84 84.3Z" fill="#F3F4EA"/>
<path d="M331.71 308.36C336.23 307.43 340.64 305.53 345.41 306.81C345.49 313.21 341.5 320.35 348.84 325.42C338.4 324.65 342.04 316.48 341.45 311.61C338.7 307.14 332.04 319.91 331.77 308.31L331.71 308.36Z" fill="#F3F4EA"/>
<path d="M210.21 213.35C211.02 214.67 211.71 216.08 212.66 217.3C214.33 219.44 217.92 220.8 216.86 224.08C215.8 227.35 212.4 226.92 209.54 226.96C207.28 226.99 204.81 227.14 204.74 230.18C204.68 232.82 206.61 234.44 208.95 234.41C219.11 234.24 222.36 240.97 224.21 249.15C226.09 257.5 230.19 255.77 234.13 251.04C236.48 248.22 238.36 245.55 242.51 246.32C238.56 251.4 232.24 255.13 233.06 262.91C229.65 262.96 226.74 262.77 224.34 259.33C220.93 254.46 215.54 252.91 209.62 253.46C212.75 247.88 217.55 253.81 221.59 251.56C221.28 245.38 219.59 239.29 212.44 238.65C204.54 237.95 200.19 232.4 194.16 228.3C201.11 231.93 204.83 224.03 210.94 224.41C213.76 224.58 214 221.63 211.54 219.87C209.64 218.52 208.48 216.79 207.64 214.72C208.5 214.27 209.35 213.81 210.21 213.35Z" fill="#F3F4EA"/>
<path d="M280.28 327.16C266.51 333.45 271.65 353.84 255.5 358.35C266.15 349.63 264.3 332.02 280.28 327.16Z" fill="#F3F4EA"/>
<path d="M291.85 276.13C291.48 280.4 287.55 280.12 284.93 281.34C282.92 282.27 280.75 282.66 280.44 285.39C280.04 288.81 281.57 293.48 275.25 293.04C269.6 292.64 268.39 288.66 267.34 283.83C271.72 282.95 270.03 289.7 273.73 288.65C277.49 287.58 276.39 283.33 278.3 280.98C281.87 276.6 287.61 278.44 291.94 276.22L291.85 276.13Z" fill="#F3F4EA"/>
<path d="M305.21 302.61C303.96 302.63 302.62 302.93 301.46 302.61C295.07 300.83 289.27 299.89 288.71 309.27C288.69 309.62 287.05 309.88 286.17 310.18L286.25 310.27C286.44 305.37 288.35 299.82 280.8 297.63C289.89 296.72 298.29 296.11 305.13 302.7L305.21 302.61Z" fill="#F3F4EA"/>
<path d="M327.95 306.42C315.65 303.21 318.04 313.71 315.68 320.19C315.72 314.63 313.09 310.59 310.91 306.39L310.83 306.48C313.76 305.41 316.62 303.98 319.64 303.37C322.8 302.74 326.77 301.21 327.92 306.45C327.91 306.46 327.95 306.42 327.95 306.42Z" fill="#F3F4EA"/>
<path d="M233.07 327.26C237.58 334.24 244.65 340.53 237.95 352.86C238.88 342.08 232.29 335.64 233.11 327.22L233.07 327.26Z" fill="#F3F4EA"/>
<path d="M307.1 264.85C307.05 259.69 309.22 254.64 307.33 249.34C306.39 246.7 307.69 244.46 310.91 244.06L310.83 243.98C309.63 249.46 313.36 254.84 311 260.47C310.11 262.58 309.84 264.65 307.05 264.8C307.04 264.79 307.1 264.85 307.1 264.85Z" fill="#F3F4EA"/>
<path d="M310.91 244.06C311.78 235.72 323.69 236.64 324.59 228.33C324.86 237.67 317.74 240.73 310.83 243.97C310.82 243.98 310.91 244.06 310.91 244.06Z" fill="#F3F4EA"/>
<path d="M291.92 276.21C297.29 272.83 299.7 265.53 307.1 264.85L307.04 264.79C303.18 270.17 300.48 277.1 291.85 276.13L291.92 276.21Z" fill="#F3F4EA"/>
<path d="M269.16 317.75C263.39 311.61 263.66 305.64 269.97 303.02C274.04 301.33 272.5 304.8 272.88 306.47L272.96 306.39C264.14 307.67 268.62 313.41 269.1 317.81L269.16 317.75Z" fill="#F3F4EA"/>
<path d="M286.18 310.18C281.23 316.63 277.99 312.83 274.87 308.3L274.8 308.37C278.62 309 282.44 309.63 286.26 310.27C286.25 310.27 286.18 310.18 286.18 310.18Z" fill="#F3F4EA"/>
<path d="M269.1 317.82C271.27 318.09 273.39 318.51 273.94 321.07C274.17 322.16 273.43 322.82 272.35 322.58C269.8 322 269.25 320.01 269.16 317.76C269.16 317.75 269.1 317.82 269.1 317.82Z" fill="#F3F4EA"/>
<path d="M305.13 302.7C307.88 302.68 310.52 302.83 310.82 306.49L310.9 306.4C308.24 306.28 305.31 306.56 305.2 302.62C305.21 302.61 305.13 302.7 305.13 302.7Z" fill="#F3F4EA"/>
<path d="M331.76 308.3C330.13 308.4 328.75 308 327.95 306.42L327.92 306.46C329.54 306.38 330.94 306.76 331.72 308.36C331.71 308.36 331.76 308.3 331.76 308.3Z" fill="#F3F4EA"/>
<path d="M272.88 306.47C273.52 307.1 274.15 307.74 274.79 308.37L274.86 308.3C274.22 307.66 273.59 307.03 272.95 306.39C272.96 306.39 272.88 306.47 272.88 306.47Z" fill="#F3F4EA"/>
<path d="M233.11 327.22C232.85 327.1 232.59 326.98 232.33 326.86C232.58 326.99 232.82 327.13 233.07 327.26L233.11 327.22Z" fill="#F3F4EA"/>
<path d="M88.3401 343.16C85.1501 340.2 82.0601 337.18 81.7201 332.46C92.4701 333.57 103.23 334.46 114.8 334.26C103.82 337.46 107.72 345.2 108.32 351.7C108.45 353.15 109.85 354.44 110.34 355.92C114.03 367.1 110.19 372.19 96.7801 372.28C102.05 368.6 110.49 368.62 108.06 359.74C106.43 353.8 105.43 347.58 103.92 341.74C101.71 333.2 92.8901 337.66 87.0501 336.05C85.7901 339.25 94.0801 339.58 88.3401 343.16Z" fill="#F7E0A8"/>
<path d="M177.97 263.83C177.57 263.01 176.65 262.02 176.85 261.38C179.34 253.53 176.93 250.71 168.81 253.13C167.43 253.54 165.7 253.7 163.24 250.87C176.09 250.81 185.98 247.01 188.7 234.52C196.17 240.2 199.86 249.85 209.35 253.46C204.75 257.12 199.75 259.27 193.73 257.48C193.57 257.21 193.31 256.95 193.29 256.67C193.27 256.4 193.45 255.92 193.64 255.86C196.08 255.13 200.85 255.02 198.18 251.43C196.16 248.72 193.29 244.59 189.14 244.55C184.68 244.52 182.13 247.95 180.72 252.06C179.47 255.7 179.75 259.37 180.29 263.07C179.52 263.33 178.74 263.58 177.97 263.83Z" fill="#F3F4EA"/>
<path d="M165.02 268.4C165.37 268.16 165.76 268.06 166.18 268.1C169.03 271.58 169.9 276.17 168.3 279.68C164.68 287.65 168.58 291.04 175.06 293.4C176.21 282.47 178.03 281.14 190.34 285.21C175.48 284.55 178.28 293.53 178.09 300.76L177.96 300.86C168.56 295.76 161.11 287.11 149.64 285.69C148.24 285.52 147.11 283.16 145.85 281.82L145.82 281.86C148.89 282.47 151.94 283.19 155.03 283.68C165.62 285.35 167.69 283 165.44 272.11C165.18 270.9 165.15 269.64 165.02 268.4Z" fill="#F7E0A8"/>
<path d="M217.94 289.38C215.47 289.16 213.01 288.79 210.54 288.75C204.64 288.65 202.03 285.8 202.77 279.95L202.7 280.02C207.08 281.16 209.18 288 215.5 284.9C216.48 284.42 217.85 287.44 217.89 289.44L217.94 289.38Z" fill="#F7E0A8"/>
<path d="M126.87 271.63C133.38 265.51 128.14 256.29 132.71 249.65C133.11 253.59 133.93 257.55 133.8 261.47C133.64 266.05 134.7 272.01 126.87 271.63Z" fill="#F3F4EA"/>
<path d="M37.6301 344.21C38.6001 339.36 48.0601 340.26 45.3201 332.9L45.2801 332.94C47.4301 335.07 48.0101 339.01 52.1401 338.87C51.9101 340.19 51.6801 341.51 51.4401 342.84C46.7001 341.58 42.5001 345.06 37.8201 344.39L37.6301 344.21Z" fill="#9ED6E4"/>
<path d="M116.61 283.86C118.56 289.01 124.95 289.06 127.26 293.89C122.96 291.11 115.62 292.37 115.41 284.21L115.95 283.84L116.61 283.86Z" fill="#F7E0A8"/>
<path d="M116.61 283.86L115.95 283.84L115.41 284.21C113.88 283.94 111.79 284.68 111.56 282.09C113.28 280.87 113.7 279.33 113.29 277.21C111.85 269.8 115.52 273.06 118.43 274.86C117.83 277.86 117.22 280.86 116.61 283.86Z" fill="#F3F4EA"/>
<path d="M185.33 265C186.14 264.98 186.94 264.97 187.75 264.95C189.58 266.81 191.4 268.67 193.23 270.52L193.3 270.45C189.86 269.77 184.04 272.56 185.33 265Z" fill="#F7E0A8"/>
<path d="M193.22 270.52C195.87 271.3 198.49 272.11 199.97 275.87C196.31 275.12 193.92 273.97 193.29 270.44C193.3 270.45 193.22 270.52 193.22 270.52Z" fill="#F7E0A8"/>
<path d="M138.79 246.07C138.82 247.2 138.84 248.33 138.87 249.47C136.78 249.61 134.69 249.74 132.6 249.88C132.73 248.2 132.86 246.52 132.98 244.83C134.92 245.24 136.85 245.65 138.79 246.07Z" fill="#F3F4EA"/>
<path d="M81.0101 331.25C78.0801 328.29 80.3701 324.7 79.8301 321.46C82.4901 324.45 80.0201 328.06 81.0101 331.25Z" fill="#F7E0A8"/>
<path d="M145.86 281.82C143.39 281.96 141.18 281.5 139.17 278.92C142.44 278.74 144.27 280.01 145.83 281.87C145.82 281.87 145.86 281.82 145.86 281.82Z" fill="#F7E0A8"/>
<path d="M178.1 300.76C179.51 301.63 180.25 302.84 179.8 304.51C179.71 304.83 179.05 304.99 178.66 305.22C178.43 303.77 178.2 302.32 177.97 300.87C177.96 300.86 178.1 300.76 178.1 300.76Z" fill="#F7E0A8"/>
<path d="M118.62 274.64C120.12 273.9 121.63 273.16 123.13 272.43C122.18 274.3 120.56 274.78 118.62 274.64Z" fill="#F3F4EA"/>
<path d="M129.79 297.38L130 298.05L129.46 297.99L129.79 297.38Z" fill="#F7E0A8"/>
<path d="M217.89 289.43C218.1 289.56 218.31 289.69 218.53 289.82C218.34 289.67 218.14 289.53 217.95 289.38C217.94 289.38 217.89 289.43 217.89 289.43Z" fill="#F7E0A8"/>
<path d="M202.77 279.94C202.52 279.77 202.27 279.6 202.02 279.43C202.25 279.62 202.47 279.81 202.7 280C202.7 280.01 202.77 279.94 202.77 279.94Z" fill="#F7E0A8"/>
<path d="M109.52 281.86C110.3 280.93 111.04 280.6 111.66 282C110.95 281.96 110.23 281.91 109.52 281.86Z" fill="#F3F4EA"/>
<path d="M35.9301 330.44C43.0101 330.58 52.3301 341.66 51.0601 347.93C49.8801 353.78 45.5801 354.84 41.2601 353.77C38.0001 352.96 34.9501 350.4 38.8001 345.86C41.5401 342.62 37.9401 341.1 35.6101 339.53C33.1801 337.89 32.9301 335.42 33.4701 332.8C33.7301 331.5 34.5001 330.6 35.9301 330.44Z" fill="#9ED6E4"/>
<path d="M68.0701 389.67C68.4001 394.24 68.2801 397.81 61.7001 395.65C57.8101 394.37 53.5401 395.73 48.3301 397.52C53.6101 388.78 62.3501 393.22 68.0501 389.64L68.0701 389.67Z" fill="#9ED6E4"/>
<path d="M46.6101 314.49C48.4101 314.53 49.8601 315.51 49.9801 317.12C50.1801 319.76 47.5701 319.49 45.9701 320.07C44.5401 320.59 43.5801 319.93 43.5501 318.31C43.5101 316.21 44.1701 314.63 46.6101 314.49Z" fill="#9ED6E4"/>
<path d="M33.8801 363.15C34.8801 359.66 35.8801 356.18 36.8801 352.69C37.6401 352.94 38.3901 353.2 39.1501 353.45C38.4701 357.05 39.5201 361.24 33.9601 363.21C33.9501 363.21 33.8801 363.15 33.8801 363.15Z" fill="#9ED6E4"/>
<path d="M33.9201 373.28C36.9401 370.61 36.7501 367.44 39.6201 366.65C39.9301 366.57 41.0301 367.95 41.1201 368.74C41.6101 372.61 39.1301 373.3 33.9201 373.28Z" fill="#9ED6E4"/>
<path d="M51.5201 380.18C48.9101 379.79 50.7101 379.86 47.6901 377.71C45.5101 381.27 48.6101 377.88 50.9401 380.09C50.9501 380.09 51.5201 380.18 51.5201 380.18Z" fill="#9ED6E4"/>
<path d="M57.2101 383.97C54.5001 383.92 52.5401 382.76 51.5301 380.18L51.4801 380.24C54.2001 380.27 56.8701 380.37 57.1801 384.02L57.2101 383.97Z" fill="#9ED6E4"/>
<path d="M40.8001 328.25C40.7301 327.67 40.3401 326.74 40.6401 326.18C40.9401 325.63 41.9401 325.45 42.6301 325.11C42.7701 325.67 43.0901 326.26 43.0101 326.79C42.8701 327.72 42.4601 328.6 40.8001 328.25Z" fill="#9ED6E4"/>
<path d="M57.1701 384.01C57.9701 384.22 58.7701 384.43 59.5601 384.64C58.2201 386.33 57.8701 384.61 57.2001 383.97C57.2101 383.97 57.1701 384.01 57.1701 384.01Z" fill="#9ED6E4"/>
<path d="M33.9501 363.21C33.7401 363.98 33.5301 364.75 33.3201 365.52C32.9901 365.3 32.6701 365.08 32.3401 364.86C32.8501 364.29 33.3701 363.72 33.8801 363.15L33.9501 363.21Z" fill="#9ED6E4"/>
<path d="M54.0401 387.16C54.1501 387.42 54.3901 387.71 54.3401 387.93C54.1301 388.78 53.6601 388.87 53.2101 388.16C53.0901 387.98 53.2001 387.55 53.3501 387.33C53.4401 387.18 53.8001 387.21 54.0401 387.16Z" fill="#9ED6E4"/>
<path d="M37.8301 344.38C37.5601 345.14 37.2801 345.9 37.0101 346.66C36.7901 346.5 36.3701 346.22 36.3901 346.2C36.7801 345.52 37.2101 344.87 37.6301 344.21L37.8301 344.38Z" fill="#9ED6E4"/>
<path d="M45.3201 332.9C45.0801 332.77 44.8401 332.65 44.5901 332.52C44.8201 332.66 45.0501 332.8 45.2801 332.94L45.3201 332.9Z" fill="#9ED6E4"/>
<path d="M68.0501 389.65C68.1801 389.4 68.3201 389.15 68.4501 388.9C68.3201 389.16 68.2001 389.42 68.0701 389.67L68.0501 389.65Z" fill="#9ED6E4"/>
<path d="M114.12 187.25C108.94 188.36 103.64 190.56 98.4501 188.5C89.3601 184.9 89.1201 190.05 89.4101 196.62C89.5601 200.01 92.7501 203.43 89.1901 207.9C85.3601 200.9 90.0201 192.26 83.4101 186.65C82.9301 186.25 90.5701 181.61 93.5201 182.81C100.01 185.45 105.58 186.64 112.23 183.4C114.78 182.15 113.67 185.81 114.08 187.31L114.12 187.25Z" fill="#9ED6E4"/>
<path d="M77.5301 247.82C87.7001 248.91 84.8401 242.87 83.2201 237.5C84.4601 237.45 85.7101 237.4 86.9601 237.35C86.6601 244.14 97.4001 242.46 96.5001 249.72L96.5401 249.68C89.3001 244.92 84.8001 247.17 82.2601 255.06C80.9601 259.08 79.2801 262.98 76.8201 266.85C75.1301 260.43 79.0701 254.14 77.5701 247.79L77.5301 247.82Z" fill="#F3F4EA"/>
<path d="M99.2001 207.26C101.47 203.41 103.92 202.78 106.31 202.61C108.98 202.43 112.44 201.32 114.13 203.95C116.69 207.94 113.61 207.73 110.9 207.23C109.69 207.01 108.51 206.35 107.33 206.38C104.98 206.45 102.64 206.87 99.2001 207.26Z" fill="#9ED6E4"/>
<path d="M137.47 211.94C136.26 216.85 136.26 216.85 117.49 217.71C124.09 213.07 132.76 219.14 137.47 211.94Z" fill="#9ED6E4"/>
<path d="M147.31 194.49C151.3 187.07 156.46 189.9 162.37 189.25C157.5 193.85 152.81 192.8 147.31 194.49Z" fill="#9ED6E4"/>
<path d="M120.15 173.92C115.63 176.05 112.88 178 107.78 176.87C111.44 173.29 114.4 172.01 120.15 173.92Z" fill="#9ED6E4"/>
<path d="M114.07 187.3C116.93 187.64 119.31 188.75 121.76 191.76C116.42 193.34 114.83 190.98 114.12 187.25L114.07 187.3Z" fill="#9ED6E4"/>
<path d="M123.78 242.08C121.95 239.05 112.54 249.87 115.72 237.69C118.4 239.15 121.09 240.61 123.78 242.08Z" fill="#F3F4EA"/>
<path d="M120.26 177.47C125.17 176.47 127.49 177.55 130.04 179.42C126.65 182 124.53 179.52 120.26 177.47Z" fill="#9ED6E4"/>
<path d="M103.23 169.86C102.75 169.55 101.74 169.25 101.46 168.63C100.97 167.56 101.94 166.91 102.86 166.97C103.6 167.02 104.66 167.5 104.95 168.09C105.46 169.15 104.51 169.6 103.23 169.86Z" fill="#9ED6E4"/>
<path d="M153.45 238.3C150.77 238.31 148.08 238.32 145.39 238.34C146.11 236.88 146.84 235.41 147.57 233.93C149.5 235.41 151.43 236.89 153.37 238.38L153.45 238.3Z" fill="#F3F4EA"/>
<path d="M132.32 147.5C133.97 147.59 135.47 147.98 136.34 149.58C134.54 149.78 133.23 149.04 132.32 147.5Z" fill="#F3F4EA"/>
<path d="M148.41 198.15C148.63 198.17 148.96 198.1 149.04 198.22C149.19 198.42 149.3 198.78 149.21 198.98C148.84 199.8 148.42 199.77 148.16 198.9C148.11 198.68 148.32 198.4 148.41 198.15Z" fill="#9ED6E4"/>
<path d="M136.34 204.31C135.88 203.65 135.41 202.98 134.95 202.32C135.19 202.17 135.43 202.02 135.67 201.87C135.9 202.68 136.13 203.49 136.36 204.29L136.34 204.31Z" fill="#9ED6E4"/>
<path d="M127.99 245.15C125.74 245.65 125 244.19 124.45 242.46C125.63 243.36 126.81 244.26 127.99 245.15Z" fill="#F3F4EA"/>
<path d="M132.79 244.37C131.93 244.23 131.07 244.1 130.2 243.96C131.38 242.1 132.2 242.51 132.79 244.37Z" fill="#F3F4EA"/>
<path d="M136.36 204.29C136.62 204.42 136.88 204.56 137.14 204.69C136.87 204.56 136.61 204.44 136.34 204.31L136.36 204.29Z" fill="#9ED6E4"/>
<path d="M102.25 128.69C99.6101 119.05 107.36 111.38 107.25 101.57C108.49 113.08 116.3 113.57 124.81 113.97C132.02 114.3 139.3 122.88 140.58 131.51C133.79 123.6 127.63 115.85 115.64 115.94C108.72 115.99 103.56 115.54 103.87 124.46C103.92 125.83 102.78 127.23 102.19 128.62L102.25 128.69Z" fill="#F3F4EA"/>
<path d="M102.19 128.61C101.32 130.05 99.9301 130.43 98.3801 130.48L98.4601 130.56C99.3301 129.14 100.66 128.65 102.26 128.69C102.25 128.69 102.19 128.61 102.19 128.61Z" fill="#F3F4EA"/>
<path d="M98.3801 130.49C98.2701 130.74 98.1501 131 98.0401 131.25C98.1801 131.02 98.3201 130.79 98.4601 130.56C98.4501 130.56 98.3801 130.49 98.3801 130.49Z" fill="#F3F4EA"/>
<path d="M109.09 268.97C100.89 259.37 101.06 255.38 110.16 244.09C111.92 252.98 103.79 260.69 109.09 268.97Z" fill="#F3F4EA"/>
<path d="M77.5601 247.79C71.9901 245.01 66.4301 242.23 60.8601 239.45C67.1401 240.95 75.9401 237.98 77.5301 247.82L77.5601 247.79Z" fill="#F3F4EA"/>
<path d="M96.4901 249.71C97.7001 249.89 99.0701 249.9 99.3501 251.45C99.4001 251.73 98.6201 252.51 98.3201 252.46C96.7801 252.22 96.6001 250.95 96.5301 249.67L96.4901 249.71Z" fill="#F3F4EA"/>
<path d="M153.38 238.38C155.56 239.12 158.38 239.22 157.96 242.85C154.44 243.17 154.05 240.64 153.45 238.3L153.38 238.38Z" fill="#F3F4EA"/>
</svg>